<svg xmlns="http://www.w3.org/2000/svg" xmlns:xlink="http://www.w3.org/1999/xlink" width="900" zoomAndPan="magnify" viewBox="0 0 675 449.999984" height="600" preserveAspectRatio="xMidYMid meet" version="1.0"><defs><clipPath id="56b331d07e"><path d="M 6 36 L 673 36 L 673 417.703125 L 6 417.703125 Z M 6 36 " clip-rule="nonzero"/></clipPath></defs><rect x="-67.5" width="810" fill="#ffffff" y="-44.999998" height="539.99998" fill-opacity="1"/><rect x="-67.5" width="810" fill="#ffffff" y="-44.999998" height="539.99998" fill-opacity="1"/><g clip-path="url(#56b331d07e)"><path fill="#ffffff" d="M 656.925781 51.722656 C 655.8125 50.515625 654.640625 49.371094 653.414062 48.289062 C 652.183594 47.203125 650.898438 46.1875 649.566406 45.234375 C 648.230469 44.285156 646.851562 43.402344 645.425781 42.59375 C 644 41.785156 642.535156 41.050781 641.035156 40.394531 C 639.53125 39.738281 638 39.160156 636.441406 38.660156 C 634.878906 38.160156 633.296875 37.742188 631.691406 37.40625 C 630.085938 37.070312 628.46875 36.816406 626.839844 36.648438 C 625.207031 36.480469 623.574219 36.394531 621.933594 36.394531 C 620.296875 36.394531 618.660156 36.480469 617.03125 36.648438 C 615.398438 36.816406 613.78125 37.070312 612.179688 37.40625 C 610.574219 37.742188 608.992188 38.160156 607.429688 38.660156 C 605.867188 39.160156 604.335938 39.738281 602.835938 40.394531 C 601.335938 41.050781 599.871094 41.785156 598.445312 42.59375 C 597.019531 43.402344 595.640625 44.285156 594.304688 45.234375 C 592.96875 46.1875 591.6875 47.203125 590.457031 48.289062 C 589.226562 49.371094 588.058594 50.515625 586.945312 51.722656 L 339.878906 299.261719 L 91.386719 51.722656 C 90.242188 50.574219 89.039062 49.488281 87.789062 48.460938 C 86.535156 47.433594 85.234375 46.46875 83.886719 45.570312 C 82.539062 44.671875 81.152344 43.839844 79.722656 43.078125 C 78.292969 42.3125 76.832031 41.621094 75.332031 41 C 73.835938 40.382812 72.3125 39.835938 70.761719 39.367188 C 69.210938 38.898438 67.640625 38.503906 66.050781 38.1875 C 64.464844 37.871094 62.863281 37.636719 61.25 37.476562 C 59.636719 37.320312 58.019531 37.238281 56.402344 37.238281 C 54.78125 37.242188 53.164062 37.320312 51.550781 37.480469 C 49.941406 37.636719 48.339844 37.875 46.75 38.191406 C 45.160156 38.507812 43.589844 38.902344 42.039062 39.371094 C 40.488281 39.84375 38.964844 40.386719 37.46875 41.007812 C 35.972656 41.628906 34.511719 42.320312 33.082031 43.085938 C 31.652344 43.847656 30.265625 44.679688 28.917969 45.582031 C 27.570312 46.480469 26.269531 47.445312 25.019531 48.472656 C 23.765625 49.5 22.566406 50.585938 21.421875 51.734375 C 20.273438 52.878906 19.1875 54.078125 18.160156 55.332031 C 17.132812 56.582031 16.167969 57.882812 15.269531 59.230469 C 14.367188 60.578125 13.535156 61.964844 12.773438 63.394531 C 12.007812 64.824219 11.316406 66.285156 10.695312 67.78125 C 10.074219 69.277344 9.53125 70.800781 9.058594 72.351562 C 8.589844 73.902344 8.195312 75.472656 7.878906 77.0625 C 7.5625 78.652344 7.324219 80.253906 7.167969 81.863281 C 7.007812 83.476562 6.929688 85.09375 6.925781 86.714844 C 6.925781 88.332031 7.007812 89.949219 7.164062 91.5625 C 7.324219 93.175781 7.558594 94.777344 7.875 96.363281 C 8.191406 97.953125 8.585938 99.523438 9.054688 101.074219 C 9.523438 102.625 10.070312 104.148438 10.6875 105.644531 C 11.308594 107.144531 12 108.605469 12.765625 110.035156 C 13.527344 111.464844 14.359375 112.851562 15.257812 114.199219 C 16.15625 115.546875 17.121094 116.847656 18.148438 118.101562 C 19.175781 119.351562 20.261719 120.554688 21.410156 121.699219 L 304.175781 404.46875 C 305.289062 405.671875 306.460938 406.816406 307.6875 407.902344 C 308.917969 408.984375 310.199219 410.003906 311.535156 410.953125 C 312.871094 411.90625 314.25 412.785156 315.675781 413.59375 C 317.101562 414.402344 318.566406 415.136719 320.066406 415.792969 C 321.570312 416.453125 323.101562 417.03125 324.660156 417.53125 C 326.222656 418.027344 327.804688 418.445312 329.410156 418.78125 C 331.015625 419.117188 332.632812 419.371094 334.261719 419.539062 C 335.890625 419.707031 337.527344 419.792969 339.167969 419.792969 C 340.804688 419.792969 342.441406 419.707031 344.070312 419.539062 C 345.699219 419.371094 347.320312 419.117188 348.921875 418.78125 C 350.527344 418.445312 352.109375 418.027344 353.671875 417.53125 C 355.230469 417.03125 356.765625 416.453125 358.265625 415.792969 C 359.765625 415.136719 361.230469 414.402344 362.65625 413.59375 C 364.082031 412.785156 365.460938 411.90625 366.796875 410.953125 C 368.132812 410.003906 369.414062 408.984375 370.644531 407.902344 C 371.875 406.816406 373.042969 405.671875 374.15625 404.46875 L 656.925781 121.699219 C 658.128906 120.585938 659.273438 119.417969 660.355469 118.1875 C 661.441406 116.957031 662.457031 115.675781 663.410156 114.339844 C 664.359375 113.003906 665.242188 111.625 666.050781 110.199219 C 666.859375 108.773438 667.59375 107.308594 668.25 105.808594 C 668.90625 104.308594 669.484375 102.777344 669.984375 101.214844 C 670.484375 99.652344 670.902344 98.070312 671.238281 96.464844 C 671.574219 94.863281 671.828125 93.246094 671.996094 91.613281 C 672.164062 89.984375 672.25 88.347656 672.25 86.710938 C 672.25 85.070312 672.164062 83.4375 671.996094 81.804688 C 671.828125 80.175781 671.574219 78.558594 671.238281 76.953125 C 670.902344 75.347656 670.484375 73.765625 669.984375 72.203125 C 669.484375 70.644531 668.90625 69.113281 668.25 67.609375 C 667.59375 66.109375 666.859375 64.644531 666.050781 63.21875 C 665.242188 61.792969 664.359375 60.414062 663.410156 59.078125 C 662.457031 57.746094 661.441406 56.460938 660.355469 55.234375 C 659.273438 54.003906 658.128906 52.832031 656.925781 51.722656 Z M 656.925781 51.722656 " fill-opacity="1" fill-rule="nonzero"/></g></svg>